<?xml version="1.0" encoding="UTF-8" standalone="no"?>
<!-- Created with Inkscape (http://www.inkscape.org/) -->

<svg
   xmlns:dc="http://purl.org/dc/elements/1.1/"
   xmlns:cc="http://creativecommons.org/ns#"
   xmlns:rdf="http://www.w3.org/1999/02/22-rdf-syntax-ns#"
   xmlns:svg="http://www.w3.org/2000/svg"
   xmlns="http://www.w3.org/2000/svg"
   xmlns:sodipodi="http://sodipodi.sourceforge.net/DTD/sodipodi-0.dtd"
   xmlns:inkscape="http://www.inkscape.org/namespaces/inkscape"
   id="svg2"
   version="1.1"
   inkscape:version="0.47 r22583"
   width="450"
   height="100"
   xml:space="preserve"
   sodipodi:docname="generacion-prototipos.pdf"><metadata
     id="metadata8"><rdf:RDF><cc:Work
         rdf:about=""><dc:format>image/svg+xml</dc:format><dc:type
           rdf:resource="http://purl.org/dc/dcmitype/StillImage" /><dc:title></dc:title></cc:Work></rdf:RDF></metadata><defs
     id="defs6"><inkscape:perspective
       sodipodi:type="inkscape:persp3d"
       inkscape:vp_x="0 : 0.5 : 1"
       inkscape:vp_y="0 : 1000 : 0"
       inkscape:vp_z="1 : 0.5 : 1"
       inkscape:persp3d-origin="0.5 : 0.33333333 : 1"
       id="perspective10" /><clipPath
       clipPathUnits="userSpaceOnUse"
       id="clipPath18"><path
         d="m 0,0 595.4,0 0,842 L 0,842 0,0 z"
         clip-rule="evenodd"
         id="path20" /></clipPath></defs><sodipodi:namedview
     pagecolor="#ffffff"
     bordercolor="#666666"
     borderopacity="1"
     objecttolerance="10"
     gridtolerance="10"
     guidetolerance="10"
     inkscape:pageopacity="0"
     inkscape:pageshadow="2"
     inkscape:window-width="1023"
     inkscape:window-height="554"
     id="namedview4"
     showgrid="false"
     inkscape:zoom="1.5262372"
     inkscape:cx="237.97443"
     inkscape:cy="35.480106"
     inkscape:window-x="1"
     inkscape:window-y="24"
     inkscape:window-maximized="1"
     inkscape:current-layer="g12" /><g
     id="g12"
     inkscape:groupmode="layer"
     inkscape:label="generacion-prototipos"
     transform="matrix(1.25,0,0,-1.25,0,100)"><g
       id="g14"
       transform="translate(-62.375627,-704.47766)"><g
         id="g16"
         clip-path="url(#clipPath18)"><g
           id="g22"><text
             transform="matrix(1,0,0,-1,63.1,771.1)"
             id="text24"><tspan
               style="font-size:12px;font-variant:normal;writing-mode:lr-tb;fill:#000000;fill-opacity:1;fill-rule:nonzero;stroke:none;font-family:Nimbus Sans L;-inkscape-font-specification:NimbusSanL-Regu"
               x="0 2.688 12.684 19.284 25.968 32.652 39.335999 42.636002"
               y="0"
               sodipodi:role="line"
               id="tspan26">imagen 1</tspan></text>
</g><g
           id="g28"><text
             transform="matrix(1,0,0,-1,131.7,771.1)"
             id="text30"><tspan
               style="font-size:12px;font-variant:normal;writing-mode:lr-tb;fill:#000000;fill-opacity:1;fill-rule:nonzero;stroke:none;font-family:Nimbus Sans L;-inkscape-font-specification:NimbusSanL-Regu"
               x="0 3.9960001 9.8999996 13.104 19.788 23.087999 25.188 31.284 37.883999"
               y="0"
               sodipodi:role="line"
               id="tspan32">{1,2..10}</tspan></text>
</g><g
           id="g34"><text
             transform="matrix(1,0,0,-1,195.9,771.1)"
             id="text36"><tspan
               style="font-size:12px;font-variant:normal;writing-mode:lr-tb;fill:#000000;fill-opacity:1;fill-rule:nonzero;stroke:none;font-family:Nimbus Sans L;-inkscape-font-specification:NimbusSanL-Regu"
               x="0 6.684 10.584 17.184 20.388 26.988001 30.288 32.891998 39.576 46.259998 49.644001"
               y="0"
               sodipodi:role="line"
               id="tspan38">prototipo 1</tspan></text>
</g><g
           id="g40"><text
             transform="matrix(1,0,0,-1,295.9,771.1)"
             id="text42"><tspan
               style="font-size:12px;font-variant:normal;writing-mode:lr-tb;fill:#000000;fill-opacity:1;fill-rule:nonzero;stroke:none;font-family:Nimbus Sans L;-inkscape-font-specification:NimbusSanL-Regu"
               x="0 3.9960001 10.68 14.676 21.275999 27.959999 34.644001 41.327999 44.627998 51.312"
               y="0"
               sodipodi:role="line"
               id="tspan44">{prueba 1}</tspan></text>
</g><g
           id="g46"><text
             transform="matrix(1,0,0,-1,369.8,771.1)"
             id="text48"><tspan
               style="font-size:12px;font-variant:normal;writing-mode:lr-tb;fill:#000000;fill-opacity:1;fill-rule:nonzero;stroke:none;font-family:Nimbus Sans L;-inkscape-font-specification:NimbusSanL-Regu"
               x="0 2.688 12.684 19.284 25.968 32.652 39.335999 42.636002"
               y="0"
               sodipodi:role="line"
               id="tspan50">imagen 1</tspan></text>
</g><g
           id="g52"><text
             transform="matrix(1,0,0,-1,63.1,750.7)"
             id="text54"><tspan
               style="font-size:12px;font-variant:normal;writing-mode:lr-tb;fill:#000000;fill-opacity:1;fill-rule:nonzero;stroke:none;font-family:Nimbus Sans L;-inkscape-font-specification:NimbusSanL-Regu"
               x="0 2.688 12.684 19.284 25.968 32.652 39.335999 42.636002"
               y="0"
               sodipodi:role="line"
               id="tspan56">imagen 2</tspan></text>
</g><g
           id="g58"><text
             transform="matrix(1,0,0,-1,131.7,750.7)"
             id="text60"><tspan
               style="font-size:12px;font-variant:normal;writing-mode:lr-tb;fill:#000000;fill-opacity:1;fill-rule:nonzero;stroke:none;font-family:Nimbus Sans L;-inkscape-font-specification:NimbusSanL-Regu"
               x="0 3.9960001 9.8999996 13.104 19.788 23.087999 25.188 31.284 37.883999"
               y="0"
               sodipodi:role="line"
               id="tspan62">{1,2..10}</tspan></text>
</g><g
           id="g64"><text
             transform="matrix(1,0,0,-1,195.9,750.7)"
             id="text66"><tspan
               style="font-size:12px;font-variant:normal;writing-mode:lr-tb;fill:#000000;fill-opacity:1;fill-rule:nonzero;stroke:none;font-family:Nimbus Sans L;-inkscape-font-specification:NimbusSanL-Regu"
               x="0 6.684 10.584 17.184 20.388 26.988001 30.288 32.891998 39.576 46.259998 49.644001"
               y="0"
               sodipodi:role="line"
               id="tspan68">prototipo 2</tspan></text>
</g><g
           id="g70"><text
             transform="matrix(1,0,0,-1,295.9,750.7)"
             id="text72"><tspan
               style="font-size:12px;font-variant:normal;writing-mode:lr-tb;fill:#000000;fill-opacity:1;fill-rule:nonzero;stroke:none;font-family:Nimbus Sans L;-inkscape-font-specification:NimbusSanL-Regu"
               x="0 3.9960001 10.68 14.676 21.275999 27.959999 34.644001 41.327999 44.627998 51.312"
               y="0"
               sodipodi:role="line"
               id="tspan74">{prueba 2}</tspan></text>
</g><g
           id="g76"><text
             transform="matrix(1,0,0,-1,369.8,750.7)"
             id="text78"><tspan
               style="font-size:12px;font-variant:normal;writing-mode:lr-tb;fill:#000000;fill-opacity:1;fill-rule:nonzero;stroke:none;font-family:Nimbus Sans L;-inkscape-font-specification:NimbusSanL-Regu"
               x="0 2.688 12.684 19.284 25.968 32.652 39.335999 42.636002"
               y="0"
               sodipodi:role="line"
               id="tspan80">imagen 2</tspan></text>
</g><g
           id="g82"><text
             transform="matrix(1,0,0,-1,82.8,730.4)"
             id="text84"><tspan
               style="font-size:12px;font-variant:normal;writing-mode:lr-tb;fill:#000000;fill-opacity:1;fill-rule:nonzero;stroke:none;font-family:Nimbus Sans L;-inkscape-font-specification:NimbusSanL-Regu"
               x="0 3.3 6.684"
               y="0"
               sodipodi:role="line"
               id="tspan86">...</tspan></text>
</g><g
           id="g88"><text
             transform="matrix(1,0,0,-1,147.7,730.4)"
             id="text90"><tspan
               style="font-size:12px;font-variant:normal;writing-mode:lr-tb;fill:#000000;fill-opacity:1;fill-rule:nonzero;stroke:none;font-family:Nimbus Sans L;-inkscape-font-specification:NimbusSanL-Regu"
               x="0 3.3 6.5999999"
               y="0"
               sodipodi:role="line"
               id="tspan92">...</tspan></text>
</g><g
           id="g94"><text
             transform="matrix(1,0,0,-1,219.1,730.4)"
             id="text96"><tspan
               style="font-size:12px;font-variant:normal;writing-mode:lr-tb;fill:#000000;fill-opacity:1;fill-rule:nonzero;stroke:none;font-family:Nimbus Sans L;-inkscape-font-specification:NimbusSanL-Regu"
               x="0 3.3 6.5999999"
               y="0"
               sodipodi:role="line"
               id="tspan98">...</tspan></text>
</g><g
           id="g100"><text
             transform="matrix(1,0,0,-1,295.9,730.4)"
             id="text102"><tspan
               style="font-size:12px;font-variant:normal;writing-mode:lr-tb;fill:#000000;fill-opacity:1;fill-rule:nonzero;stroke:none;font-family:Nimbus Sans L;-inkscape-font-specification:NimbusSanL-Regu"
               x="0 3.9960001 10.68 14.676 21.275999 27.959999 34.644001 41.327999 44.627998 51.312"
               y="0"
               sodipodi:role="line"
               id="tspan104">{prueba 3}</tspan></text>
</g><g
           id="g106"><text
             transform="matrix(1,0,0,-1,389.5,730.4)"
             id="text108"><tspan
               style="font-size:12px;font-variant:normal;writing-mode:lr-tb;fill:#000000;fill-opacity:1;fill-rule:nonzero;stroke:none;font-family:Nimbus Sans L;-inkscape-font-specification:NimbusSanL-Regu"
               x="0 3.3 6.684"
               y="0"
               sodipodi:role="line"
               id="tspan110">...</tspan></text>
</g><g
           id="g112"><text
             transform="matrix(1,0,0,-1,63.1,710)"
             id="text114"><tspan
               style="font-size:12px;font-variant:normal;writing-mode:lr-tb;fill:#000000;fill-opacity:1;fill-rule:nonzero;stroke:none;font-family:Nimbus Sans L;-inkscape-font-specification:NimbusSanL-Regu"
               x="0 2.688 12.684 19.284 25.968 32.652 39.335999 42.636002"
               y="0"
               sodipodi:role="line"
               id="tspan116">imagen 5</tspan></text>
</g><g
           id="g118"><text
             transform="matrix(1,0,0,-1,131.7,710)"
             id="text120"><tspan
               style="font-size:12px;font-variant:normal;writing-mode:lr-tb;fill:#000000;fill-opacity:1;fill-rule:nonzero;stroke:none;font-family:Nimbus Sans L;-inkscape-font-specification:NimbusSanL-Regu"
               x="0 3.9960001 9.8999996 13.104 19.788 23.087999 25.188 31.284 37.883999"
               y="0"
               sodipodi:role="line"
               id="tspan122">{1,2..10}</tspan></text>
</g><g
           id="g124"><text
             transform="matrix(1,0,0,-1,195.9,710)"
             id="text126"><tspan
               style="font-size:12px;font-variant:normal;writing-mode:lr-tb;fill:#000000;fill-opacity:1;fill-rule:nonzero;stroke:none;font-family:Nimbus Sans L;-inkscape-font-specification:NimbusSanL-Regu"
               x="0 6.684 10.584 17.184 20.388 26.988001 30.288 32.891998 39.576 46.259998 49.644001"
               y="0"
               sodipodi:role="line"
               id="tspan128">prototipo 5</tspan></text>
</g><g
           id="g130"><text
             transform="matrix(1,0,0,-1,369.8,710)"
             id="text132"><tspan
               style="font-size:12px;font-variant:normal;writing-mode:lr-tb;fill:#000000;fill-opacity:1;fill-rule:nonzero;stroke:none;font-family:Nimbus Sans L;-inkscape-font-specification:NimbusSanL-Regu"
               x="0 2.688 12.684 19.284 25.968 32.652 39.335999 42.636002"
               y="0"
               sodipodi:role="line"
               id="tspan134">imagen 5</tspan></text>
</g><path
           d="m 112.2,775.1 13.3,0"
           style="fill:none;stroke:#000000;stroke-width:0.1;stroke-linecap:butt;stroke-linejoin:miter;stroke-miterlimit:10;stroke-opacity:1;stroke-dasharray:none"
           id="path136" /><path
           d="m 128.2,775.1 -3.4,2.2 0,-4.3 3.4,2.1 z"
           style="fill:#000000;fill-opacity:1;fill-rule:evenodd;stroke:none"
           id="path138" /><path
           d="m 178.5,774.3 13.3,0"
           style="fill:none;stroke:#000000;stroke-width:0.1;stroke-linecap:butt;stroke-linejoin:miter;stroke-miterlimit:10;stroke-opacity:1;stroke-dasharray:none"
           id="path140" /><path
           d="m 194.5,774.3 -3.4,2.1 0,-4.2 3.4,2.1 z"
           style="fill:#000000;fill-opacity:1;fill-rule:evenodd;stroke:none"
           id="path142" /><path
           d="m 253.3,775.1 2.5,0 0,-0.1 0,-0.2 -2.5,0 0,0.2 0,0.1 z"
           style="fill:#000000;fill-opacity:1;fill-rule:evenodd;stroke:none"
           id="path144" /><path
           d="m 258.4,775.1 2.5,0 0,-0.1 0,-0.2 -2.5,0 0,0.2 0,0.1 z"
           style="fill:#000000;fill-opacity:1;fill-rule:evenodd;stroke:none"
           id="path146" /><path
           d="m 263.5,775.1 2.5,0 0,-0.1 0,-0.2 -2.5,0 0,0.2 0,0.1 z"
           style="fill:#000000;fill-opacity:1;fill-rule:evenodd;stroke:none"
           id="path148" /><path
           d="m 268.6,775.1 2.5,0 0,-0.1 0,-0.2 -2.5,0 0,0.2 0,0.1 z"
           style="fill:#000000;fill-opacity:1;fill-rule:evenodd;stroke:none"
           id="path150" /><path
           d="m 273.7,775.1 2.5,0 0,-0.1 0,-0.2 -2.5,0 0,0.2 0,0.1 z"
           style="fill:#000000;fill-opacity:1;fill-rule:evenodd;stroke:none"
           id="path152" /><path
           d="m 278.8,775.1 2.5,0 0,-0.1 0,-0.2 -2.5,0 0,0.2 0,0.1 z"
           style="fill:#000000;fill-opacity:1;fill-rule:evenodd;stroke:none"
           id="path154" /><path
           d="m 283.9,775.1 2.5,0 0,-0.1 0,-0.2 -2.5,0 0,0.2 0,0.1 z"
           style="fill:#000000;fill-opacity:1;fill-rule:evenodd;stroke:none"
           id="path156" /><path
           d="m 289,775.1 0.6,0 0,-0.1 0,-0.2 -0.6,0 0,0.2 0,0.1 z"
           style="fill:#000000;fill-opacity:1;fill-rule:evenodd;stroke:none"
           id="path158" /><path
           d="m 288.9,773.6 -0.3,-0.4 5,1.8 -5,1.8 0.2,-0.4 0.3,-0.4 0.1,-0.5 0.1,-0.5 -0.1,-0.5 -0.1,-0.5 -0.2,-0.4 z"
           style="fill:#000000;fill-opacity:1;fill-rule:evenodd;stroke:none"
           id="path160" /><path
           d="m 253.4,775.1 2.3,-1 -0.1,-0.2 -0.1,-0.1 -2.3,1 0.1,0.2 0.1,0.1 z"
           style="fill:#c0c0c0;fill-opacity:1;fill-rule:evenodd;stroke:none"
           id="path162" /><path
           d="m 258,773 2.3,-1.1 -0.1,-0.1 0,-0.1 -2.3,1 0,0.2 0.1,0.1 z"
           style="fill:#c0c0c0;fill-opacity:1;fill-rule:evenodd;stroke:none"
           id="path164" /><path
           d="m 262.6,770.9 2.3,-1.1 0,-0.1 -0.1,-0.2 -2.3,1.1 0.1,0.1 0,0.2 z"
           style="fill:#c0c0c0;fill-opacity:1;fill-rule:evenodd;stroke:none"
           id="path166" /><path
           d="m 267.3,768.8 2.3,-1.1 -0.1,-0.1 0,-0.2 -2.4,1.1 0.1,0.1 0.1,0.2 z"
           style="fill:#c0c0c0;fill-opacity:1;fill-rule:evenodd;stroke:none"
           id="path168" /><path
           d="m 271.9,766.6 2.3,-1 0,-0.2 -0.1,-0.1 -2.3,1.1 0,0.1 0.1,0.1 z"
           style="fill:#c0c0c0;fill-opacity:1;fill-rule:evenodd;stroke:none"
           id="path170" /><path
           d="m 276.5,764.5 2.4,-1 -0.1,-0.2 -0.1,-0.1 -2.3,1 0.1,0.2 0,0.1 z"
           style="fill:#c0c0c0;fill-opacity:1;fill-rule:evenodd;stroke:none"
           id="path172" /><path
           d="m 281.2,762.4 2.3,-1.1 -0.1,-0.1 0,-0.1 -2.3,1 0,0.2 0.1,0.1 z"
           style="fill:#c0c0c0;fill-opacity:1;fill-rule:evenodd;stroke:none"
           id="path174" /><path
           d="m 285.8,760.3 2.3,-1.1 0,-0.1 -0.1,-0.2 -2.3,1.1 0.1,0.1 0,0.2 z"
           style="fill:#c0c0c0;fill-opacity:1;fill-rule:evenodd;stroke:none"
           id="path176" /><path
           d="m 290.5,758.1 1.7,-0.8 -0.1,-0.1 0,-0.1 -1.8,0.8 0.1,0.1 0.1,0.1 z"
           style="fill:#c0c0c0;fill-opacity:1;fill-rule:evenodd;stroke:none"
           id="path178" /><path
           d="m 291.2,756.4 -0.4,-0.2 4.2,-0.3 -3,2.9 0.1,-0.3 0,-0.4 0,-0.4 -0.2,-0.4 -0.2,-0.3 -0.2,-0.3 -0.3,-0.3 z"
           style="fill:#c0c0c0;fill-opacity:1;fill-rule:evenodd;stroke:none"
           id="path180" /><path
           d="m 253.4,775.1 1.9,-1.7 -0.2,-0.2 -0.1,-0.1 -1.8,1.8 0.1,0.1 0.1,0.1 z"
           style="fill:#c0c0c0;fill-opacity:1;fill-rule:evenodd;stroke:none"
           id="path182" /><path
           d="m 257.1,771.6 1.9,-1.7 -0.1,-0.1 -0.1,-0.2 -1.9,1.8 0.1,0.1 0.1,0.1 z"
           style="fill:#c0c0c0;fill-opacity:1;fill-rule:evenodd;stroke:none"
           id="path184" /><path
           d="m 260.8,768.1 1.9,-1.7 -0.1,-0.1 -0.1,-0.1 -1.9,1.7 0.1,0.1 0.1,0.1 z"
           style="fill:#c0c0c0;fill-opacity:1;fill-rule:evenodd;stroke:none"
           id="path186" /><path
           d="m 264.6,764.6 1.8,-1.7 -0.1,-0.1 -0.1,-0.1 -1.8,1.7 0.1,0.1 0.1,0.1 z"
           style="fill:#c0c0c0;fill-opacity:1;fill-rule:evenodd;stroke:none"
           id="path188" /><path
           d="m 268.3,761.2 1.8,-1.8 -0.1,-0.1 -0.1,-0.1 -1.8,1.7 0.1,0.1 0.1,0.2 z"
           style="fill:#c0c0c0;fill-opacity:1;fill-rule:evenodd;stroke:none"
           id="path190" /><path
           d="m 272,757.7 1.9,-1.8 -0.1,-0.1 -0.1,-0.1 -1.9,1.7 0.1,0.2 0.1,0.1 z"
           style="fill:#c0c0c0;fill-opacity:1;fill-rule:evenodd;stroke:none"
           id="path192" /><path
           d="m 275.7,754.2 1.9,-1.8 -0.1,-0.1 -0.1,-0.1 -1.9,1.8 0.1,0.1 0.1,0.1 z"
           style="fill:#c0c0c0;fill-opacity:1;fill-rule:evenodd;stroke:none"
           id="path194" /><path
           d="m 279.5,750.7 1.8,-1.7 -0.1,-0.2 -0.1,-0.1 -1.9,1.8 0.2,0.1 0.1,0.1 z"
           style="fill:#c0c0c0;fill-opacity:1;fill-rule:evenodd;stroke:none"
           id="path196" /><path
           d="m 283.2,747.2 1.8,-1.7 -0.1,-0.1 -0.1,-0.1 -1.8,1.7 0.1,0.1 0.1,0.1 z"
           style="fill:#c0c0c0;fill-opacity:1;fill-rule:evenodd;stroke:none"
           id="path198" /><path
           d="m 286.9,743.7 1.9,-1.7 -0.1,-0.1 -0.1,-0.1 -1.9,1.7 0.1,0.1 0.1,0.1 z"
           style="fill:#c0c0c0;fill-opacity:1;fill-rule:evenodd;stroke:none"
           id="path200" /><path
           d="m 290.6,740.2 1.7,-1.5 -0.1,-0.1 -0.1,-0.2 -1.7,1.6 0.1,0.1 0.1,0.1 z"
           style="fill:#c0c0c0;fill-opacity:1;fill-rule:evenodd;stroke:none"
           id="path202" /><path
           d="m 291,738.1 -0.3,0 3.8,-1.7 -1.9,3.7 0,-0.3 -0.1,-0.4 -0.2,-0.3 -0.3,-0.4 -0.3,-0.2 -0.3,-0.2 -0.4,-0.2 z"
           style="fill:#c0c0c0;fill-opacity:1;fill-rule:evenodd;stroke:none"
           id="path204" /><path
           d="m 355.8,774.8 13.3,0"
           style="fill:none;stroke:#000000;stroke-width:0.1;stroke-linecap:butt;stroke-linejoin:miter;stroke-miterlimit:10;stroke-opacity:1;stroke-dasharray:none"
           id="path206" /><path
           d="m 353.1,774.8 3.4,-2.1 0,4.2 -3.4,-2.1 z"
           style="fill:#000000;fill-opacity:1;fill-rule:evenodd;stroke:none"
           id="path208" /><path
           d="m 354.8,757.8 14.3,17"
           style="fill:none;stroke:#000000;stroke-width:0.1;stroke-linecap:butt;stroke-linejoin:miter;stroke-miterlimit:10;stroke-opacity:1;stroke-dasharray:none"
           id="path210" /><path
           d="m 353.1,755.7 3.8,1.2 -3.3,2.7 -0.5,-3.9 z"
           style="fill:#000000;fill-opacity:1;fill-rule:evenodd;stroke:none"
           id="path212" /><path
           d="m 354.2,738.9 14.9,35.9"
           style="fill:none;stroke:#000000;stroke-width:0.1;stroke-linecap:butt;stroke-linejoin:miter;stroke-miterlimit:10;stroke-opacity:1;stroke-dasharray:none"
           id="path214" /><path
           d="m 353.2,736.4 3.2,2.3 -3.9,1.6 0.7,-3.9 z"
           style="fill:#000000;fill-opacity:1;fill-rule:evenodd;stroke:none"
           id="path216" /><path
           d="m 111.7,755 13.3,0"
           style="fill:none;stroke:#000000;stroke-width:0.1;stroke-linecap:butt;stroke-linejoin:miter;stroke-miterlimit:10;stroke-opacity:1;stroke-dasharray:none"
           id="path218" /><path
           d="m 127.7,755 -3.4,2.1 0,-4.3 3.4,2.2 z"
           style="fill:#000000;fill-opacity:1;fill-rule:evenodd;stroke:none"
           id="path220" /><path
           d="m 178.5,754.5 13.3,0"
           style="fill:none;stroke:#000000;stroke-width:0.1;stroke-linecap:butt;stroke-linejoin:miter;stroke-miterlimit:10;stroke-opacity:1;stroke-dasharray:none"
           id="path222" /><path
           d="m 194.5,754.5 -3.4,2.1 0,-4.3 3.4,2.2 z"
           style="fill:#000000;fill-opacity:1;fill-rule:evenodd;stroke:none"
           id="path224" /><path
           d="m 112.7,713.9 13.3,0"
           style="fill:none;stroke:#000000;stroke-width:0.1;stroke-linecap:butt;stroke-linejoin:miter;stroke-miterlimit:10;stroke-opacity:1;stroke-dasharray:none"
           id="path226" /><path
           d="m 128.7,713.9 -3.4,2.2 0,-4.3 3.4,2.1 z"
           style="fill:#000000;fill-opacity:1;fill-rule:evenodd;stroke:none"
           id="path228" /><path
           d="m 178.5,713.4 13.3,0"
           style="fill:none;stroke:#000000;stroke-width:0.1;stroke-linecap:butt;stroke-linejoin:miter;stroke-miterlimit:10;stroke-opacity:1;stroke-dasharray:none"
           id="path230" /><path
           d="m 194.5,713.4 -3.4,2.1 0,-4.2 3.4,2.1 z"
           style="fill:#000000;fill-opacity:1;fill-rule:evenodd;stroke:none"
           id="path232" /></g></g></g></svg>