<?xml version="1.0" encoding="UTF-8" standalone="no"?>
<!DOCTYPE svg PUBLIC "-//W3C//DTD SVG 1.0//EN" "http://www.w3.org/TR/2001/PR-SVG-20010719/DTD/svg10.dtd">
<svg width="26cm" height="10cm" viewBox="2 84 514 187" xmlns="http://www.w3.org/2000/svg" xmlns:xlink="http://www.w3.org/1999/xlink">
  <g>
    <rect style="fill: #ffffff" x="73" y="86" width="120" height="69"/>
    <rect style="fill: none; fill-opacity:0; stroke-width: 2; stroke: #000000" x="73" y="86" width="120" height="69"/>
    <text style="fill: #000000;text-anchor:middle;font-size:12.8;font-family:sanserif;font-style:normal;font-weight:normal" x="133" y="124.4">
      <tspan x="133" y="124.4">Resize</tspan>
    </text>
  </g>
  <g>
    <rect style="fill: #ffffff" x="248" y="87" width="120" height="69"/>
    <rect style="fill: none; fill-opacity:0; stroke-width: 2; stroke: #000000" x="248" y="87" width="120" height="69"/>
    <text style="fill: #000000;text-anchor:middle;font-size:12.8;font-family:sanserif;font-style:normal;font-weight:normal" x="308" y="117.4">
      <tspan x="308" y="117.4">Extracción</tspan>
      <tspan x="308" y="133.4">estadisticas</tspan>
    </text>
  </g>
  <g>
    <line style="fill: none; fill-opacity:0; stroke-width: 2; stroke: #000000" x1="193" y1="120.5" x2="238.266" y2="121.323"/>
    <polygon style="fill: #000000" points="245.764,121.459 235.675,126.277 238.266,121.323 235.857,116.278 "/>
    <polygon style="fill: none; fill-opacity:0; stroke-width: 2; stroke: #000000" points="245.764,121.459 235.675,126.277 238.266,121.323 235.857,116.278 "/>
  </g>
  <g>
    <line style="fill: none; fill-opacity:0; stroke-width: 2; stroke: #000000" x1="133" y1="155" x2="134.106" y2="191.568"/>
    <polygon style="fill: #000000" points="134.332,199.065 129.032,189.221 134.106,191.568 139.028,188.918 "/>
    <polygon style="fill: none; fill-opacity:0; stroke-width: 2; stroke: #000000" points="134.332,199.065 129.032,189.221 134.106,191.568 139.028,188.918 "/>
  </g>
  <g>
    <line style="fill: none; fill-opacity:0; stroke-width: 2; stroke: #000000" x1="3.6875" y1="120.562" x2="63.2639" y2="120.509"/>
    <polygon style="fill: #000000" points="70.7639,120.502 60.7684,125.511 63.2639,120.509 60.7594,115.511 "/>
    <polygon style="fill: none; fill-opacity:0; stroke-width: 2; stroke: #000000" points="70.7639,120.502 60.7684,125.511 63.2639,120.509 60.7594,115.511 "/>
  </g>
  <text style="fill: #000000;text-anchor:middle;font-size:12.8;font-family:sanserif;font-style:normal;font-weight:normal" x="34" y="96.75">
    <tspan x="34" y="96.75">Imágen</tspan>
    <tspan x="34" y="112.75">RGB</tspan>
  </text>
  <text style="fill: #000000;text-anchor:middle;font-size:12.8;font-family:sanserif;font-style:normal;font-weight:normal" x="468.002" y="116.75">
    <tspan x="468.002" y="116.75">Vector de </tspan>
    <tspan x="468.002" y="132.75">Características</tspan>
  </text>
  <g>
    <polyline style="fill: none; fill-opacity:0; stroke-width: 2; stroke: #000000" points="194.4,235.8 308,235.8 308,165.736 "/>
    <polygon style="fill: #000000" points="308,158.236 313,168.236 308,165.736 303,168.236 "/>
    <polygon style="fill: none; fill-opacity:0; stroke-width: 2; stroke: #000000" points="308,158.236 313,168.236 308,165.736 303,168.236 "/>
  </g>
  <g>
    <line style="fill: none; fill-opacity:0; stroke-width: 2; stroke: #000000" x1="368.988" y1="120.676" x2="409.265" y2="120.132"/>
    <polygon style="fill: #000000" points="416.764,120.03 406.833,125.165 409.265,120.132 406.697,115.166 "/>
    <polygon style="fill: none; fill-opacity:0; stroke-width: 2; stroke: #000000" points="416.764,120.03 406.833,125.165 409.265,120.132 406.697,115.166 "/>
  </g>
  <g>
    <rect style="fill: #ffffff" x="74.4" y="201.3" width="120" height="69"/>
    <rect style="fill: none; fill-opacity:0; stroke-width: 2; stroke: #000000" x="74.4" y="201.3" width="120" height="69"/>
    <text style="fill: #000000;text-anchor:middle;font-size:12.8;font-family:sanserif;font-style:normal;font-weight:normal" x="134.4" y="231.7">
      <tspan x="134.4" y="231.7">Extracción</tspan>
      <tspan x="134.4" y="247.7">Subimágenes</tspan>
    </text>
  </g>
  <line style="fill: none; fill-opacity:0; stroke-width: 1; stroke-dasharray: 4; stroke: #7f7f7f" x1="134.4" y1="201.3" x2="134.4" y2="270.3"/>
  <line style="fill: none; fill-opacity:0; stroke-width: 1; stroke-dasharray: 4; stroke: #bfbfbf" x1="74.4" y1="235.8" x2="194.4" y2="235.8"/>
</svg>
